# xmcd CD database file
#
# Track frame offsets:
#	150
#	15343
#	28128
#	40364
#	47631
#	60230
#	72109
#	87871
#	102692
#	121797
#	131012
#
# Disc length: 1979 seconds
#
# Revision: 0
# Processed by: cddbd v1.5.1PL2 Copyright (c) Steve Scherf et al.
# Submitted via: CDex 1.51
#
DISCID=8b07b90b
DTITLE=Matty Charles - Lover In Arms
DYEAR=2006
DGENRE=Country
TTITLE0=And The World Goes On
TTITLE1=Silver Springs
TTITLE2=Better Than A Drunkards Dream
TTITLE3=Golden Time
TTITLE4=Powder Blue
TTITLE5=My Dream of You
TTITLE6=Steady and True
TTITLE7=Tell Me What You've Seen
TTITLE8=Time Machine
TTITLE9=Lover In Arms
TTITLE10=An Old Mandolin
EXTD=YEAR: 2006
EXTT0=
EXTT1=
EXTT2=
EXTT3=
EXTT4=
EXTT5=
EXTT6=
EXTT7=
EXTT8=
EXTT9=
EXTT10=
PLAYORDER=
